<?xml version="1.0" encoding="utf-8"?>
<!-- Generator: Adobe Illustrator 23.0.2, SVG Export Plug-In . SVG Version: 6.00 Build 0)  -->
<svg version="1.1" id="Capa_1" xmlns="http://www.w3.org/2000/svg" xmlns:xlink="http://www.w3.org/1999/xlink" x="0px" y="0px"
	 viewBox="0 0 411.1 411.1" style="enable-background:new 0 0 411.1 411.1;" xml:space="preserve">
<style type="text/css">
	.st0{fill:#838282;}
</style>
<g>
	<g>
		<g>
			<path class="st0" d="M32.8,253.4l-1.9-5.1c-1.1,0-2.2-0.3-3.2-0.9c-1.5-0.8-2.6-2.2-3.2-3.8c-0.1-0.3-0.1-0.6-0.3-0.9l-4.1-13.9
				c-0.5-1.8-0.3-3.7,0.6-5.4c0.6-1,1.4-1.9,2.3-2.6l-1.4-4.9c-0.7-2.3-1.1-4.7-1.3-7.1C11.1,212.4,6,222.4,8.7,232l4.2,14.4
				c2.8,9.6,12.6,15.4,22.3,13.3C34.2,257.7,33.4,255.6,32.8,253.4z"/>
		</g>
	</g>
	<g>
		<g>
			<path class="st0" d="M162.8,317.8l-10.5-36.2h-12.4l11.6,39.7c1.7,6-1.6,12.3-7.5,14.3l-0.8,0.2c-6.1,1.5-12.2-2.1-14-8
				l-13.5-46.4h-12.4l14.6,49.7c3.7,12.4,16.7,19.6,29.2,16C159.3,343.3,166.5,330.3,162.8,317.8z"/>
		</g>
	</g>
	<g>
		<g>
			<path class="st0" d="M290.4,73.6c-14-19.7-29.1-29.7-42.5-25.9c-3.5,1-6.7,3-9.3,5.6L49.4,174.6c-7.3,4.3-13.5,10.4-17.9,17.7
				c-3.7,6.5-4.6,14.2-2.5,21.4l10.9,37.4c2,7.2,6.9,13.3,13.6,16.8c7.6,3.7,16,5.6,24.5,5.3l224.8,1.1c3.6,0.9,7.3,0.8,10.9-0.2
				c13.2-3.9,20.7-20.6,22.1-44.7C338.5,181.8,318.3,112.3,290.4,73.6z M78.2,261.3c-6.5,0.2-12.9-1.1-18.8-3.9
				c-3.8-2-6.7-5.4-7.9-9.6l-10.9-37.4c-1.2-4.1-0.7-8.6,1.5-12.4c3.5-5.5,8.2-10.1,13.8-13.4L228.3,74c-1.4,6-2.3,12.1-2.6,18.3
				c-2.7,47.7,17.6,117.2,45.4,155.9c3.6,5,7.6,9.7,12,14L78.2,261.3z M323.9,228.8L323.9,228.8c-1.1,18.8-5.7,31.6-13.5,33.9
				s-18.6-6.1-29.6-21.4c-12.1-16.9-23.9-41.7-32.3-70.7v-0.2v-0.4c-8.3-28.7-11.8-56.1-10.6-76.9c1.1-18.9,5.7-31.6,13.5-33.9
				c7.8-2.3,18.6,6.1,29.6,21.4C307.1,117.1,326.5,183.8,323.9,228.8z"/>
		</g>
	</g>
</g>
<g>
	<path class="st0" d="M342.5,106.7l25.4-32.6c2.2-2.8,1.7-6.9-1.1-9.2c-2.8-2.2-6.9-1.7-9.2,1.1l-25.4,32.6
		c-2.2,2.8-1.7,6.9,1.1,9.2C336.2,110.1,340.3,109.6,342.5,106.7z"/>
	<path class="st0" d="M347.2,147l34.2-8.5c3-0.7,4.8-3.8,4.1-6.8s-3.8-4.8-6.8-4.1l-34.2,8.5c-3,0.7-4.8,3.8-4.1,6.8
		C341.2,146,344.2,147.8,347.2,147z"/>
	<path class="st0" d="M357.6,184.3l38.5,15c3.4,1.3,7.1-0.3,8.5-3.7c1.3-3.4-0.3-7.1-3.7-8.5l-38.5-15c-3.4-1.3-7.1,0.3-8.5,3.7
		C352.6,179.2,354.3,182.9,357.6,184.3z"/>
</g>
</svg>
